<?xml version="1.0" standalone="no"?>
<!DOCTYPE svg PUBLIC "-//W3C//DTD SVG 20010904//EN"
 "http://www.w3.org/TR/2001/REC-SVG-20010904/DTD/svg10.dtd">
<svg version="1.0" xmlns="http://www.w3.org/2000/svg"
 width="140.000000pt" height="133.000000pt" viewBox="0 0 140.000000 133.000000"
 preserveAspectRatio="xMidYMid meet">

<g transform="translate(0.000000,133.000000) scale(0.100000,-0.100000)"
fill="#000000" stroke="none">
<path d="M864 891 c-16 -10 -39 -29 -52 -43 l-22 -24 25 -24 25 -23 26 24 c14
13 32 37 40 52 13 24 13 30 1 42 -12 12 -18 11 -43 -4z m41 -11 c3 -5 1 -10
-4 -10 -6 0 -11 -6 -11 -14 0 -15 -22 -27 -57 -32 -38 -5 -24 18 33 53 24 15
31 16 39 3z m-58 -76 c-3 -3 -12 -4 -19 -1 -8 3 -5 6 6 6 11 1 17 -2 13 -5z"/>
<path d="M622 808 c-9 -9 -12 -65 -12 -205 0 -177 -1 -193 -17 -194 -10 0 -13
-3 -7 -5 7 -3 10 -14 7 -24 -3 -11 0 -20 6 -20 6 0 10 -12 10 -27 -1 -17 -3
-21 -6 -10 -2 9 -9 17 -14 17 -14 0 -11 -16 6 -30 12 -10 22 -10 52 1 46 18
51 33 52 159 1 114 14 140 67 140 46 0 54 -23 54 -160 0 -111 9 -140 45 -140
34 0 45 41 45 168 0 137 -10 171 -60 197 -39 20 -68 19 -113 -4 l-37 -19 -1
57 c-1 81 -10 105 -39 109 -14 2 -31 -3 -38 -10z"/>
<path d="M80 790 c-18 -18 -20 -34 -20 -190 l0 -169 36 -10 c66 -18 74 -6 75
112 1 56 2 139 3 184 0 46 -1 83 -4 84 -63 9 -72 7 -90 -11z"/>
<path d="M1115 803 c-11 -3 -24 -9 -29 -14 -6 -5 -20 -9 -33 -9 -13 0 -22 -3
-21 -7 4 -17 -26 -62 -36 -56 -6 3 -8 2 -3 -2 4 -5 -1 -17 -10 -28 -13 -15
-14 -19 -3 -13 9 5 9 2 -2 -7 -13 -10 -15 -16 -6 -25 7 -7 8 -12 2 -12 -5 0
-10 -11 -10 -25 -1 -15 2 -22 9 -18 6 3 7 1 3 -5 -4 -7 -14 -12 -22 -12 -8 0
-14 -4 -14 -10 0 -5 4 -10 8 -10 5 0 9 -15 10 -32 0 -18 6 -34 11 -36 6 -2 11
-10 11 -19 0 -19 20 -38 48 -47 12 -4 31 -21 43 -38 17 -23 24 -27 30 -16 7
11 11 10 19 -2 9 -13 10 -13 10 0 0 12 2 12 9 2 7 -11 9 -10 14 3 5 13 11 14
27 5 16 -9 22 -8 26 5 3 8 14 15 23 16 24 0 103 100 123 155 33 89 1 193 -71
235 -36 21 -126 33 -166 22z m89 -109 c9 -3 13 -10 10 -15 -3 -5 -1 -9 5 -9 6
0 8 -7 4 -15 -3 -9 2 -22 13 -30 12 -9 14 -14 6 -15 -9 0 -11 -7 -7 -20 4 -11
2 -20 -4 -20 -6 0 -11 -10 -11 -22 0 -19 2 -20 10 -8 5 8 10 10 10 4 0 -28
-76 -55 -112 -40 -26 12 -41 61 -34 111 7 47 18 59 51 60 11 0 19 6 18 13 -3
13 15 16 41 6z"/>
<path d="M1201 604 c0 -11 3 -14 6 -6 3 7 2 16 -1 19 -3 4 -6 -2 -5 -13z"/>
<path d="M249 758 c-1 -24 0 -74 1 -112 1 -47 -1 -66 -9 -62 -6 4 -11 3 -11
-3 0 -5 5 -13 10 -16 6 -3 10 -44 10 -91 0 -72 3 -85 18 -90 9 -3 24 -9 32
-13 9 -5 24 -2 38 7 17 11 22 24 22 54 0 52 17 67 71 64 24 -2 38 -1 31 1 -8
3 -4 12 13 25 56 44 76 148 41 216 -25 49 -61 62 -171 62 l-95 0 -1 -42z m162
-58 c12 -7 19 -21 19 -39 0 -57 -64 -72 -66 -16 -3 62 8 75 47 55z"/>
<path d="M777 773 c-12 -12 -7 -22 8 -17 8 4 15 10 15 15 0 11 -14 12 -23 2z"/>
<path d="M543 335 c0 -8 4 -15 9 -15 4 0 8 4 8 9 0 6 -4 12 -8 15 -5 3 -9 -1
-9 -9z"/>
</g>
</svg>
