<?xml version="1.0" standalone="no"?>
<!DOCTYPE svg PUBLIC "-//W3C//DTD SVG 20010904//EN"
 "http://www.w3.org/TR/2001/REC-SVG-20010904/DTD/svg10.dtd">
<svg version="1.0" xmlns="http://www.w3.org/2000/svg"
 width="225.000000pt" height="225.000000pt" viewBox="0 0 225.000000 225.000000"
 preserveAspectRatio="xMidYMid meet">

<g transform="translate(0.000000,225.000000) scale(0.100000,-0.100000)"
fill="#000000" stroke="none">
<path d="M430 1465 l0 -125 253 1 252 1 -145 70 c-80 39 -193 95 -252 125
l-108 53 0 -125z"/>
<path d="M381 1518 c-5 -13 -59 -125 -119 -250 -92 -189 -108 -228 -94 -232 9
-2 65 -5 125 -5 l107 0 0 254 c0 140 -2 255 -5 255 -3 0 -9 -10 -14 -22z"/>
<path d="M1358 1330 c-155 -47 -146 -267 13 -310 53 -14 138 -8 150 11 5 8 9
23 9 34 0 19 -1 19 -15 -2 -34 -48 -136 -36 -180 21 -48 63 -42 173 12 216 47
36 155 23 173 -22 8 -20 9 -19 9 13 1 34 -1 37 -36 43 -49 8 -101 6 -135 -4z"/>
<path d="M1962 1324 c-31 -22 -44 -58 -32 -89 5 -14 34 -49 65 -78 32 -32 55
-63 55 -75 0 -64 -108 -71 -123 -7 -3 11 -5 4 -6 -17 -1 -35 1 -38 34 -44 46
-8 81 1 111 31 42 42 26 106 -40 158 -53 41 -70 71 -56 97 17 31 80 25 98 -10
12 -25 13 -24 10 10 -3 34 -4 35 -48 38 -29 2 -53 -3 -68 -14z"/>
<path d="M1115 1175 l0 -155 30 0 30 0 0 155 0 155 -30 0 -30 0 0 -155z"/>
<path d="M1590 1308 c0 -17 3 -19 12 -10 7 7 34 12 60 12 l48 0 0 -113 c0 -61
-4 -127 -9 -145 l-10 -32 39 0 39 0 -10 32 c-5 18 -9 84 -9 145 l0 113 48 0
c26 0 53 -5 60 -12 9 -9 12 -7 12 10 0 22 -2 22 -140 22 -138 0 -140 0 -140
-22z"/>
<path d="M728 1058 l4 -253 119 244 c65 134 119 247 119 252 0 5 -55 9 -122 9
l-123 0 3 -252z"/>
<path d="M235 988 c22 -12 136 -68 253 -124 l212 -103 0 124 0 125 -252 0
-253 -1 40 -21z"/>
</g>
</svg>
