<svg width="530" height="196" version="1.1" xmlns="http://www.w3.org/2000/svg" desc="Created with imagetracer.js version 1.2.6" ><path fill="rgb(0,0,0)" stroke="rgb(0,0,0)" stroke-width="1" opacity="0" d="M 0 0 L 530 0 L 530 196 L 0 196 L 0 0 Z M 210 16 L 201 39 L 206 38 L 209 32 L 210 32 L 210 36 L 215 36 L 214 18 L 210 16 Z M 370 34 L 368 35 L 364 42 L 366 45 L 366 54 L 368 55 L 370 54 L 370 45 L 372 44 Q 376 42 373 40 Q 369 41 370 38 L 374 37 Q 374 34 370 34 Z M 231 35 L 182 48 L 180 48 L 180 52 L 193 54 L 183 78 L 185 81 L 233 40 L 234 37 L 231 35 Z M 263 35 L 260 36 L 253 53 L 255 55 L 258 53 L 259 51 L 267 51 L 268 54 L 272 55 L 272 52 L 266 38 L 263 35 Z M 278 40 Q 272 42 274 51 L 279 54 L 284 53 Q 286 52 285 55 L 283 56 L 278 55 L 274 57 L 280 60 Q 287 60 289 56 L 289 42 L 288 40 L 286 41 L 278 40 Z M 297 40 L 295 41 L 292 45 L 293 53 L 299 56 L 304 55 L 305 52 Q 303 48 302 52 Q 297 53 296 50 L 305 49 L 306 48 L 305 43 Q 303 39 297 40 Z M 311 40 L 309 42 L 309 54 L 312 55 L 313 54 L 313 46 Q 314 43 318 44 L 318 53 L 319 54 Q 318 57 322 55 L 323 53 Q 325 43 320 40 Q 315 39 314 41 L 311 40 Z M 330 40 L 325 45 L 326 53 L 332 56 Q 337 56 339 53 L 338 50 L 334 52 Q 330 53 329 50 L 330 44 L 336 45 Q 340 46 338 41 Q 336 39 330 40 Z M 342 40 L 340 42 L 345 56 Q 341 55 340 58 L 344 60 L 347 59 L 350 55 L 354 44 L 354 42 Q 355 39 353 40 Q 348 43 348 49 L 345 43 L 342 40 Z M 380 40 L 378 41 L 374 46 L 375 52 L 382 56 L 388 54 Q 391 52 390 45 Q 389 39 380 40 Z M 395 40 L 393 42 L 393 54 L 396 55 Q 399 53 397 47 L 401 44 L 402 40 L 398 41 L 395 40 Z M 146 54 L 139 57 L 135 62 L 132 59 L 122 55 L 106 55 L 85 61 Q 61 73 42 90 L 18 115 L 6 136 L 4 143 L 4 155 L 9 166 Q 17 176 32 180 Q 44 182 51 178 Q 66 171 77 159 L 95 138 L 98 136 L 97 141 L 98 160 L 105 174 L 116 180 Q 128 182 135 178 Q 146 173 156 165 L 185 134 L 199 111 Q 200 105 198 104 L 195 105 L 188 114 L 159 143 L 140 157 L 131 161 L 128 160 L 125 158 L 124 154 L 125 140 L 127 131 L 136 108 L 147 90 L 158 78 L 161 72 Q 162 65 159 62 Q 155 55 146 54 Z M 218 58 L 213 62 L 214 67 L 214 69 L 211 65 L 206 68 L 218 82 L 220 81 L 219 64 L 218 58 Z M 287 69 L 287 73 Q 292 75 291 71 L 287 69 Z M 420 69 L 417 72 L 417 88 L 420 90 Q 424 88 422 80 L 426 78 L 427 80 L 427 89 L 429 90 L 431 89 L 431 78 L 428 74 L 422 75 Q 423 70 420 69 Z M 471 69 L 469 71 L 469 89 L 472 90 L 473 89 L 473 71 L 471 69 Z M 258 70 L 255 71 Q 253 73 254 79 Q 257 82 263 82 L 264 86 L 259 86 L 255 84 L 253 87 L 259 90 L 266 89 L 269 85 L 268 82 Q 265 78 260 77 L 258 74 L 261 73 L 267 75 L 268 73 Q 265 69 258 70 Z M 372 70 L 370 73 Q 371 75 376 74 L 376 88 L 379 90 L 381 88 L 381 74 Q 385 75 386 73 L 386 70 L 372 70 Z M 277 74 L 275 75 L 270 81 L 272 88 L 276 90 L 283 89 L 284 85 L 281 86 Q 276 87 275 85 Q 274 79 277 78 L 281 79 Q 285 81 284 77 Q 282 73 277 74 Z M 300 74 L 294 79 L 295 88 L 299 90 Q 305 91 307 88 L 306 85 L 304 86 Q 299 87 298 85 L 307 84 Q 309 83 308 79 Q 306 74 300 74 Z M 318 74 L 315 76 L 311 75 L 311 89 L 313 90 Q 317 88 315 80 L 319 78 L 320 80 L 320 88 Q 322 92 324 89 Q 325 79 323 75 L 318 74 Z M 333 74 L 331 75 Q 326 77 327 86 Q 329 91 338 90 L 341 87 L 340 85 L 332 86 L 331 84 Q 330 79 334 78 L 337 79 Q 341 81 340 77 Q 338 73 333 74 Z M 348 74 L 346 75 Q 340 77 342 86 Q 344 91 353 90 Q 356 89 355 85 L 352 86 Q 347 87 346 85 L 355 84 Q 357 83 356 79 Q 354 74 348 74 Z M 391 74 L 389 75 L 385 80 L 386 87 L 391 90 Q 395 91 397 89 Q 399 90 398 88 Q 400 86 398 85 L 395 86 Q 390 87 389 85 L 398 84 L 400 82 L 398 77 Q 396 73 391 74 Z M 408 74 L 403 76 L 401 81 L 402 87 L 407 90 Q 413 91 415 88 L 414 85 L 408 86 L 405 83 L 408 78 L 414 79 L 415 77 Q 413 73 408 74 Z M 441 74 Q 439 77 438 75 L 434 77 L 434 88 L 437 90 L 438 89 L 438 81 Q 439 77 443 78 Q 445 81 444 89 Q 446 92 448 88 Q 450 80 447 77 Q 446 73 441 74 Z M 457 74 L 452 76 L 450 81 L 451 87 L 456 90 Q 464 91 466 86 L 465 78 Q 463 73 457 74 Z M 482 74 L 480 75 Q 475 77 476 86 L 482 90 L 489 89 L 492 84 L 490 76 Q 488 73 482 74 Z M 499 74 L 497 75 L 493 81 L 495 87 L 500 89 L 504 88 L 505 88 L 504 90 L 496 89 L 494 92 L 498 94 L 507 93 L 509 90 L 509 75 L 506 76 Q 504 73 499 74 Z M 514 74 L 511 77 L 517 89 Q 518 92 514 90 L 512 93 Q 513 95 518 94 Q 524 87 526 77 L 522 75 L 520 81 Q 521 84 518 83 Q 518 77 514 74 Z M 287 75 L 287 89 L 289 90 L 291 88 L 291 77 L 287 75 Z M 360 85 L 358 88 L 360 90 Q 355 92 359 94 L 361 93 Q 364 92 363 87 L 360 85 Z M 299 104 Q 296 105 297 110 L 296 109 L 289 110 L 286 114 Q 285 122 290 124 Q 295 126 297 123 L 299 124 L 301 123 L 301 105 L 299 104 Z M 316 104 L 313 107 L 313 123 L 315 124 L 317 123 L 317 118 L 322 118 L 327 124 L 329 123 Q 330 118 326 118 Q 325 115 328 116 L 330 112 L 329 108 Q 326 102 316 104 Z M 422 104 L 420 106 L 420 123 L 423 124 L 424 123 Q 422 116 425 115 Q 424 112 429 113 L 430 115 L 430 123 L 432 124 L 434 123 Q 436 114 433 111 Q 431 108 426 109 L 424 110 L 424 104 L 422 104 Z M 257 109 L 256 110 Q 253 109 254 112 Q 255 115 262 113 L 263 115 L 261 114 L 256 115 Q 252 116 253 122 Q 255 126 262 124 L 264 124 L 267 123 Q 269 115 266 112 Q 264 107 257 109 Z M 272 109 L 270 111 L 270 123 L 273 124 L 274 123 L 274 115 Q 275 112 279 113 L 279 123 L 281 124 L 283 123 L 283 112 L 281 109 Q 276 108 275 110 L 272 109 Z M 336 109 L 331 115 L 332 121 L 339 125 L 343 124 L 345 120 L 338 121 L 336 118 L 345 118 L 346 117 L 344 110 Q 342 108 336 109 Z M 351 109 Q 347 110 348 116 L 354 118 L 355 121 L 351 120 Q 349 117 347 122 L 351 124 Q 356 126 358 123 Q 360 124 359 118 L 354 114 Q 351 115 352 112 L 356 113 Q 361 115 359 110 Q 357 108 351 109 Z M 366 109 L 361 115 Q 360 121 363 123 L 369 125 L 373 124 L 375 120 L 368 121 L 366 118 L 375 118 L 376 117 L 374 110 Q 372 108 366 109 Z M 381 109 L 379 111 L 379 113 L 386 113 L 387 115 L 385 114 L 380 115 L 377 119 L 380 124 Q 385 126 387 123 L 389 124 L 391 123 Q 392 114 390 110 Q 387 108 381 109 Z M 396 109 L 394 111 L 394 123 L 397 124 L 398 123 L 399 115 L 402 113 Q 406 111 403 109 L 399 110 L 396 109 Z M 409 109 L 404 115 Q 403 121 406 123 L 412 125 Q 416 125 418 122 L 417 119 L 413 121 L 409 120 L 408 118 L 409 113 L 417 114 L 418 112 Q 416 107 409 109 Z M 254 143 L 254 144 L 401 144 L 254 143 Z M 256 163 L 253 169 Q 254 173 261 172 L 262 176 L 256 175 Q 252 174 253 177 L 257 179 Q 262 180 264 178 L 265 173 L 256 168 L 258 165 L 262 166 Q 265 167 264 165 Q 262 161 256 163 Z M 270 163 L 270 179 L 272 179 L 272 164 L 270 163 Z M 278 163 L 278 178 L 280 179 L 281 167 L 288 178 L 291 179 L 291 164 L 289 163 L 289 173 L 281 165 Q 282 162 278 163 Z M 302 163 L 300 164 L 296 170 L 298 177 L 302 179 L 309 178 Q 312 177 311 172 Q 309 168 304 170 Q 303 174 308 172 L 308 176 L 305 177 L 299 174 Q 298 166 303 165 Q 307 164 309 167 L 310 164 Q 308 162 302 163 Z M 321 163 L 315 177 Q 314 180 317 179 L 318 175 L 327 175 L 327 178 L 330 179 Q 329 171 324 165 Q 325 162 321 163 Z M 335 163 L 335 179 L 337 179 L 337 173 Q 343 174 346 172 L 347 167 L 344 163 L 335 163 Z M 356 163 L 354 164 L 350 170 L 352 177 L 357 179 L 363 178 L 367 172 L 365 166 Q 363 162 356 163 Z M 373 163 L 371 165 L 371 178 Q 373 181 374 178 Q 372 171 378 173 L 379 176 L 383 179 L 384 178 L 381 174 L 384 170 L 384 166 Q 381 161 373 163 Z M 389 163 L 389 178 L 391 179 L 400 179 L 401 178 L 400 176 L 392 176 L 392 172 L 399 172 Q 402 171 399 169 L 392 169 L 392 165 L 401 165 L 400 163 L 389 163 Z " /><path fill="rgb(0,0,0)" stroke="rgb(0,0,0)" stroke-width="1" opacity="0" d="M 262.5 41 L 265 47 L 260 46.5 L 262.5 41 Z " /><path fill="rgb(0,0,0)" stroke="rgb(0,0,0)" stroke-width="1" opacity="0" d="M 281.5 43 L 285 45.5 Q 285.8 49.3 283.5 50 Q 279 51 278 48.5 Q 277.3 44.8 279.5 44 L 281.5 43 Z " /><path fill="rgb(0,0,0)" stroke="rgb(0,0,0)" stroke-width="1" opacity="0" d="M 298.5 43 L 302 45.5 L 296.5 46 L 298.5 43 Z " /><path fill="rgb(0,0,0)" stroke="rgb(0,0,0)" stroke-width="1" opacity="0" d="M 380.5 44 Q 385.9 42.1 385 45.5 L 386 49.5 Q 385.5 52.5 381.5 52 L 379 51 L 378 46.5 L 380.5 44 Z " /><path fill="rgb(0,0,0)" stroke="rgb(0,0,0)" stroke-width="1" opacity="0" d="M 116.5 73 Q 121.9 72.1 124 74.5 L 86 119.5 L 53.5 153 Q 45.8 162.3 32.5 166 Q 26.8 162.7 29 151.5 L 40 128.5 Q 51.9 111.4 67.5 98 L 88.5 83 L 100.5 77 L 116.5 73 Z " /><path fill="rgb(0,0,0)" stroke="rgb(0,0,0)" stroke-width="1" opacity="0" d="M 299.5 78 Q 303.3 77.3 304 79.5 L 303.5 81 L 298 81 L 299.5 78 Z " /><path fill="rgb(0,0,0)" stroke="rgb(0,0,0)" stroke-width="1" opacity="0" d="M 347.5 78 Q 351.3 77.3 352 79.5 L 351.5 81 L 346 81 L 347.5 78 Z " /><path fill="rgb(0,0,0)" stroke="rgb(0,0,0)" stroke-width="1" opacity="0" d="M 390 78 Q 393.8 77 395 79.5 Q 395.6 82.3 389.5 81 L 390 79.5 L 390 78 Z " /><path fill="rgb(0,0,0)" stroke="rgb(0,0,0)" stroke-width="1" opacity="0" d="M 456.5 78 Q 461.3 77.3 462 80.5 Q 462.8 85.3 459.5 86 Q 455.8 86.8 455 84.5 L 454 81.5 L 456.5 78 Z " /><path fill="rgb(0,0,0)" stroke="rgb(0,0,0)" stroke-width="1" opacity="0" d="M 482.5 78 Q 486.3 77.3 487 79.5 L 488 82.5 L 485.5 86 Q 480.8 86.8 480 83.5 Q 479.3 78.8 482.5 78 Z " /><path fill="rgb(0,0,0)" stroke="rgb(0,0,0)" stroke-width="1" opacity="0" d="M 499.5 78 Q 504.3 77.3 505 80.5 Q 505.5 84.5 502.5 85 L 498 84 Q 496.8 79.4 499.5 78 Z " /><path fill="rgb(0,0,0)" stroke="rgb(0,0,0)" stroke-width="1" opacity="0" d="M 317 108 L 325 109 L 325 113 L 323.5 113 L 317 114 L 317 108 Z " /><path fill="rgb(0,0,0)" stroke="rgb(0,0,0)" stroke-width="1" opacity="0" d="M 293.5 112 L 297 114.5 Q 298 120 294.5 121 Q 290.5 121.5 290 118.5 Q 289 114 291.5 113 L 293.5 112 Z " /><path fill="rgb(0,0,0)" stroke="rgb(0,0,0)" stroke-width="1" opacity="0" d="M 337.5 112 Q 341.5 111.5 342 114.5 L 336 115 L 337.5 112 Z " /><path fill="rgb(0,0,0)" stroke="rgb(0,0,0)" stroke-width="1" opacity="0" d="M 367.5 112 L 371 113.5 L 371 115 L 366 115 L 367.5 112 Z " /><path fill="rgb(0,0,0)" stroke="rgb(0,0,0)" stroke-width="1" opacity="0" d="M 257 118 L 263 118.5 L 262 121 Q 258.2 122 257 119.5 L 257 118 Z " /><path fill="rgb(0,0,0)" stroke="rgb(0,0,0)" stroke-width="1" opacity="0" d="M 382.5 118 Q 387.9 116.1 387 119.5 Q 386.3 121.8 382.5 121 Q 379.5 119.5 382.5 118 Z " /><path fill="rgb(0,0,0)" stroke="rgb(0,0,0)" stroke-width="1" opacity="0" d="M 337 165 L 344 166 Q 345 169.8 342.5 171 L 337 171 L 337 165 Z " /><path fill="rgb(0,0,0)" stroke="rgb(0,0,0)" stroke-width="1" opacity="0" d="M 356.5 165 Q 362 164 363 167.5 L 364 172.5 L 361.5 176 Q 355.5 177.5 354 174.5 L 353 168.5 L 356.5 165 Z " /><path fill="rgb(0,0,0)" stroke="rgb(0,0,0)" stroke-width="1" opacity="0" d="M 374 165 L 381 166 L 381 170 L 374 170 L 374 165 Z " /><path fill="rgb(0,0,0)" stroke="rgb(0,0,0)" stroke-width="1" opacity="0" d="M 322.5 167 L 325 171.5 L 320.5 172 L 321 170.5 L 322.5 167 Z " /><path fill="rgb(58,46,106)" stroke="rgb(58,46,106)" stroke-width="1" opacity="0.6509803921568628" d="M 210 16 L 214 17.5 L 215 36 L 210 36 L 210 31.5 L 209 31.5 L 205.5 38 L 201 39 L 210 16 Z " /><path fill="rgb(58,46,106)" stroke="rgb(58,46,106)" stroke-width="1" opacity="0.6509803921568628" d="M 230.5 35 L 234 36.5 L 232.5 40 L 184.5 81 L 183 77.5 L 193 54 L 180 52 L 180 48 L 181.5 48 L 230.5 35 Z " /><path fill="rgb(58,46,106)" stroke="rgb(58,46,106)" stroke-width="1" opacity="0.6509803921568628" d="M 262.5 35 L 266 37.5 L 263.5 36 L 262.5 35 Z " /><path fill="rgb(58,46,106)" stroke="rgb(58,46,106)" stroke-width="1" opacity="0.6509803921568628" d="M 286.5 40 L 285.5 42 L 286.5 40 Z " /><path fill="rgb(58,46,106)" stroke="rgb(58,46,106)" stroke-width="1" opacity="0.6509803921568628" d="M 372.5 40 L 373.5 42 L 372.5 40 Z " /><path fill="rgb(58,46,106)" stroke="rgb(58,46,106)" stroke-width="1" opacity="0.6509803921568628" d="M 395.5 40 L 396.5 42 L 395.5 40 Z " /><path fill="rgb(58,46,106)" stroke="rgb(58,46,106)" stroke-width="1" opacity="0.6509803921568628" d="M 379.5 44 L 378.5 46 L 379.5 44 Z " /><path fill="rgb(58,46,106)" stroke="rgb(58,46,106)" stroke-width="1" opacity="0.6509803921568628" d="M 398.5 44 L 397.5 46 L 398.5 44 Z " /><path fill="rgb(58,46,106)" stroke="rgb(58,46,106)" stroke-width="1" opacity="0.6509803921568628" d="M 388.5 52 L 387.5 54 L 388.5 52 Z " /><path fill="rgb(58,46,106)" stroke="rgb(58,46,106)" stroke-width="1" opacity="0.6509803921568628" d="M 138.5 57 L 137.5 59 L 138.5 57 Z " /><path fill="rgb(58,46,106)" stroke="rgb(58,46,106)" stroke-width="1" opacity="0.6509803921568628" d="M 217.5 58 L 219 63.5 L 220 80.5 L 217.5 82 L 206 67.5 L 210.5 65 L 213.5 69 L 214 66.5 L 213 61.5 L 217.5 58 Z " /><path fill="rgb(58,46,106)" stroke="rgb(58,46,106)" stroke-width="1" opacity="0.6509803921568628" d="M 370.5 71 L 372 73.5 L 370 72.5 L 370.5 71 Z " /><path fill="rgb(58,46,106)" stroke="rgb(58,46,106)" stroke-width="1" opacity="0.6509803921568628" d="M 267.5 73 L 266.5 75 L 267.5 73 Z " /><path fill="rgb(58,46,106)" stroke="rgb(58,46,106)" stroke-width="1" opacity="0.6509803921568628" d="M 396.5 75 L 397.5 77 L 396.5 75 Z " /><path fill="rgb(58,46,106)" stroke="rgb(58,46,106)" stroke-width="1" opacity="0.6509803921568628" d="M 157.5 77 L 155.5 80 L 157.5 77 Z " /><path fill="rgb(58,46,106)" stroke="rgb(58,46,106)" stroke-width="1" opacity="0.6509803921568628" d="M 56.5 78 L 55.5 80 L 56.5 78 Z " /><path fill="rgb(58,46,106)" stroke="rgb(58,46,106)" stroke-width="1" opacity="0.6509803921568628" d="M 460.5 78 L 461.5 80 L 460.5 78 Z " /><path fill="rgb(58,46,106)" stroke="rgb(58,46,106)" stroke-width="1" opacity="0.6509803921568628" d="M 481.5 78 L 480.5 80 L 481.5 78 Z " /><path fill="rgb(58,46,106)" stroke="rgb(58,46,106)" stroke-width="1" opacity="0.6509803921568628" d="M 503.5 78 L 504.5 80 L 503.5 78 Z " /><path fill="rgb(58,46,106)" stroke="rgb(58,46,106)" stroke-width="1" opacity="0.6509803921568628" d="M 307.5 82 L 306.5 84 L 307.5 82 Z " /><path fill="rgb(58,46,106)" stroke="rgb(58,46,106)" stroke-width="1" opacity="0.6509803921568628" d="M 461.5 84 L 460.5 86 L 461.5 84 Z " /><path fill="rgb(58,46,106)" stroke="rgb(58,46,106)" stroke-width="1" opacity="0.6509803921568628" d="M 480.5 84 L 481.5 86 L 480.5 84 Z " /><path fill="rgb(58,46,106)" stroke="rgb(58,46,106)" stroke-width="1" opacity="0.6509803921568628" d="M 150.5 85 L 149.5 87 L 150.5 85 Z " /><path fill="rgb(58,46,106)" stroke="rgb(58,46,106)" stroke-width="1" opacity="0.6509803921568628" d="M 272.5 87 L 273.5 89 L 272.5 87 Z " /><path fill="rgb(58,46,106)" stroke="rgb(58,46,106)" stroke-width="1" opacity="0.6509803921568628" d="M 295.5 87 L 296.5 89 L 295.5 87 Z " /><path fill="rgb(58,46,106)" stroke="rgb(58,46,106)" stroke-width="1" opacity="0.6509803921568628" d="M 427.5 88 L 429.5 89 L 431 88.5 L 428.5 90 L 427.5 88 Z " /><path fill="rgb(58,46,106)" stroke="rgb(58,46,106)" stroke-width="1" opacity="0.6509803921568628" d="M 469.5 88 L 471.5 89 L 473 88.5 L 470.5 90 L 469.5 88 Z " /><path fill="rgb(58,46,106)" stroke="rgb(58,46,106)" stroke-width="1" opacity="0.6509803921568628" d="M 495.5 89 L 497 89.5 L 495 90 L 496 92.5 L 494 91.5 L 495.5 89 Z " /><path fill="rgb(58,46,106)" stroke="rgb(58,46,106)" stroke-width="1" opacity="0.6509803921568628" d="M 41.5 90 L 40.5 92 L 41.5 90 Z " /><path fill="rgb(58,46,106)" stroke="rgb(58,46,106)" stroke-width="1" opacity="0.6509803921568628" d="M 507.5 91 L 506.5 93 L 507.5 91 Z " /><path fill="rgb(58,46,106)" stroke="rgb(58,46,106)" stroke-width="1" opacity="0.6509803921568628" d="M 69.5 96 L 68.5 98 L 69.5 96 Z " /><path fill="rgb(58,46,106)" stroke="rgb(58,46,106)" stroke-width="1" opacity="0.6509803921568628" d="M 99.5 103 L 98.5 105 L 99.5 103 Z " /><path fill="rgb(58,46,106)" stroke="rgb(58,46,106)" stroke-width="1" opacity="0.6509803921568628" d="M 60.5 104 L 55.5 110 L 60.5 104 Z " /><path fill="rgb(58,46,106)" stroke="rgb(58,46,106)" stroke-width="1" opacity="0.6509803921568628" d="M 194.5 105 L 193.5 107 L 194.5 105 Z " /><path fill="rgb(58,46,106)" stroke="rgb(58,46,106)" stroke-width="1" opacity="0.6509803921568628" d="M 23.5 108 L 22.5 110 L 23.5 108 Z " /><path fill="rgb(58,46,106)" stroke="rgb(58,46,106)" stroke-width="1" opacity="0.6509803921568628" d="M 95.5 108 L 93.5 111 L 95.5 108 Z " /><path fill="rgb(58,46,106)" stroke="rgb(58,46,106)" stroke-width="1" opacity="0.6509803921568628" d="M 399.5 109 L 398.5 111 L 399.5 109 Z " /><path fill="rgb(58,46,106)" stroke="rgb(58,46,106)" stroke-width="1" opacity="0.6509803921568628" d="M 431.5 109 L 432.5 111 L 431.5 109 Z " /><path fill="rgb(58,46,106)" stroke="rgb(58,46,106)" stroke-width="1" opacity="0.6509803921568628" d="M 189.5 111 L 188.5 113 L 189.5 111 Z " /><path fill="rgb(58,46,106)" stroke="rgb(58,46,106)" stroke-width="1" opacity="0.6509803921568628" d="M 385.5 112 L 386.5 114 L 385.5 112 Z " /><path fill="rgb(58,46,106)" stroke="rgb(58,46,106)" stroke-width="1" opacity="0.6509803921568628" d="M 417.5 112 L 416.5 114 L 417.5 112 Z " /><path fill="rgb(58,46,106)" stroke="rgb(58,46,106)" stroke-width="1" opacity="0.6509803921568628" d="M 348.5 115 L 349.5 117 L 348.5 115 Z " /><path fill="rgb(58,46,106)" stroke="rgb(58,46,106)" stroke-width="1" opacity="0.6509803921568628" d="M 49.5 116 L 48.5 118 L 49.5 116 Z " /><path fill="rgb(58,46,106)" stroke="rgb(58,46,106)" stroke-width="1" opacity="0.6509803921568628" d="M 416.5 119 L 418 121.5 L 417 121.5 L 416.5 119 Z " /><path fill="rgb(58,46,106)" stroke="rgb(58,46,106)" stroke-width="1" opacity="0.6509803921568628" d="M 179.5 122 L 167.5 135 L 179.5 122 Z " /><path fill="rgb(58,46,106)" stroke="rgb(58,46,106)" stroke-width="1" opacity="0.6509803921568628" d="M 279.5 122 L 280.5 124 L 279.5 122 Z " /><path fill="rgb(58,46,106)" stroke="rgb(58,46,106)" stroke-width="1" opacity="0.6509803921568628" d="M 79.5 126 L 76.5 130 L 79.5 126 Z " /><path fill="rgb(58,46,106)" stroke="rgb(58,46,106)" stroke-width="1" opacity="0.6509803921568628" d="M 187.5 129 L 186.5 131 L 187.5 129 Z " /><path fill="rgb(58,46,106)" stroke="rgb(58,46,106)" stroke-width="1" opacity="0.6509803921568628" d="M 184.5 133 L 182.5 136 L 184.5 133 Z " /><path fill="rgb(58,46,106)" stroke="rgb(58,46,106)" stroke-width="1" opacity="0.6509803921568628" d="M 97.5 134 L 96.5 136 L 97.5 134 Z " /><path fill="rgb(58,46,106)" stroke="rgb(58,46,106)" stroke-width="1" opacity="0.6509803921568628" d="M 94.5 138 L 93.5 140 L 94.5 138 Z " /><path fill="rgb(58,46,106)" stroke="rgb(58,46,106)" stroke-width="1" opacity="0.6509803921568628" d="M 173.5 146 L 172.5 148 L 173.5 146 Z " /><path fill="rgb(58,46,106)" stroke="rgb(58,46,106)" stroke-width="1" opacity="0.6509803921568628" d="M 148.5 150 L 147.5 152 L 148.5 150 Z " /><path fill="rgb(58,46,106)" stroke="rgb(58,46,106)" stroke-width="1" opacity="0.6509803921568628" d="M 52.5 153 L 51.5 155 L 52.5 153 Z " /><path fill="rgb(58,46,106)" stroke="rgb(58,46,106)" stroke-width="1" opacity="0.6509803921568628" d="M 78.5 156 L 76.5 159 L 78.5 156 Z " /><path fill="rgb(58,46,106)" stroke="rgb(58,46,106)" stroke-width="1" opacity="0.6509803921568628" d="M 255.5 163 L 254.5 165 L 255.5 163 Z " /><path fill="rgb(58,46,106)" stroke="rgb(58,46,106)" stroke-width="1" opacity="0.6509803921568628" d="M 30.5 164 L 31.5 166 L 30.5 164 Z " /><path fill="rgb(58,46,106)" stroke="rgb(58,46,106)" stroke-width="1" opacity="0.6509803921568628" d="M 9.5 165 L 10.5 167 L 9.5 165 Z " /><path fill="rgb(58,46,106)" stroke="rgb(58,46,106)" stroke-width="1" opacity="0.6509803921568628" d="M 66.5 167 L 65.5 169 L 66.5 167 Z " /><path fill="rgb(58,46,106)" stroke="rgb(58,46,106)" stroke-width="1" opacity="0.6509803921568628" d="M 283.5 167 L 284.5 169 L 283.5 167 Z " /><path fill="rgb(58,46,106)" stroke="rgb(58,46,106)" stroke-width="1" opacity="0.6509803921568628" d="M 398.5 169 L 399.5 171 L 398.5 169 Z " /><path fill="rgb(58,46,106)" stroke="rgb(58,46,106)" stroke-width="1" opacity="0.6509803921568628" d="M 62.5 170 L 61.5 172 L 62.5 170 Z " /><path fill="rgb(58,46,106)" stroke="rgb(58,46,106)" stroke-width="1" opacity="0.6509803921568628" d="M 105.5 173 L 106.5 175 L 105.5 173 Z " /><path fill="rgb(58,46,106)" stroke="rgb(58,46,106)" stroke-width="1" opacity="0.6509803921568628" d="M 288.5 177 L 291 178.5 L 289.5 179 L 288.5 177 Z " /><path fill="rgb(0,48,135)" stroke="rgb(0,48,135)" stroke-width="1" opacity="0.996078431372549" d="M 369.5 34 Q 373.5 33.5 374 36.5 L 370 38 Q 368.9 40.7 371.5 40 L 373 42.5 L 370 44 Q 371.1 51.6 369 55 L 366 53.5 L 366 43.5 Q 363.3 44.1 364 41 Q 367.7 42.4 366 36.5 L 369.5 34 Z " /><path fill="rgb(0,48,135)" stroke="rgb(0,48,135)" stroke-width="1" opacity="0.996078431372549" d="M 261.5 36 Q 265.5 35.5 266 38.5 L 272 53.5 L 269.5 55 L 266.5 51 Q 260.2 52.8 258.5 50 L 255.5 55 L 253 53.5 L 259 38.5 L 261.5 36 Z M 263 41 L 260 47 L 265 47 L 263 41 Z " /><path fill="rgb(0,48,135)" stroke="rgb(0,48,135)" stroke-width="1" opacity="0.996078431372549" d="M 277.5 40 Q 284 38.5 285.5 42 Q 287.3 38.3 289 41.5 L 289 55.5 L 285.5 59 L 279.5 60 L 274 56.5 L 277.5 55 Q 278.8 57.3 283.5 56 L 285 53 L 279.5 54 L 274 50.5 Q 272.3 41.8 277.5 40 Z M 282 43 L 280 44 Q 277 45 278 49 L 283 51 Q 286 50 285 44 L 282 43 Z " /><path fill="rgb(0,48,135)" stroke="rgb(0,48,135)" stroke-width="1" opacity="0.996078431372549" d="M 297.5 40 L 304 41 L 306 44.5 L 306 47.5 L 304.5 49 L 296 49.5 Q 296.8 52.8 301.5 52 L 305 51 L 303.5 55 L 298.5 56 L 294 53.5 Q 290.8 51.2 292 44.5 L 294 41 L 297.5 40 Z M 299 43 L 298 44 Q 295 43 296 46 L 302 46 L 302 44 L 299 43 Z " /><path fill="rgb(0,48,135)" stroke="rgb(0,48,135)" stroke-width="1" opacity="0.996078431372549" d="M 310 40 L 313.5 41 L 318.5 40 L 322 42.5 L 323 52.5 Q 320.5 57.5 318 52.5 L 318 44.5 L 316.5 44 Q 314.8 41.2 313 45.5 L 313 53.5 L 311.5 55 L 309 53.5 Q 307.6 43.9 310 40 Z " /><path fill="rgb(0,48,135)" stroke="rgb(0,48,135)" stroke-width="1" opacity="0.996078431372549" d="M 329.5 40 L 338 41 L 336.5 45 L 333.5 43 L 329 45.5 Q 328 51 331.5 52 Q 335.8 52.8 336.5 50 Q 341 52 337.5 54 L 332.5 56 L 326 52.5 L 325 44.5 L 329.5 40 Z " /><path fill="rgb(0,48,135)" stroke="rgb(0,48,135)" stroke-width="1" opacity="0.996078431372549" d="M 341.5 40 L 344 41.5 L 347.5 50 L 352.5 40 Q 357.3 42.3 353 44.5 L 349 56.5 L 346.5 59 L 343.5 60 L 341 59 Q 339.4 54.1 345 56 L 345 52.5 L 340 41.5 L 341.5 40 Z " /><path fill="rgb(0,48,135)" stroke="rgb(0,48,135)" stroke-width="1" opacity="0.996078431372549" d="M 379.5 40 Q 388.5 38.5 390 44.5 Q 391.5 53.5 385.5 55 L 381.5 56 L 375 51.5 L 374 46.5 L 377.5 41 L 379.5 40 Z M 384 43 L 378 46 L 379 51 L 382 52 Q 386 53 386 50 Q 387 44 384 43 Z " /><path fill="rgb(0,48,135)" stroke="rgb(0,48,135)" stroke-width="1" opacity="0.996078431372549" d="M 394.5 40 Q 396.5 44 398.5 40 L 402 41.5 Q 402.8 43.8 400.5 43 L 397 45.5 Q 397.9 52.3 396 55 L 393 53.5 L 393 41.5 L 394.5 40 Z " /><path fill="rgb(0,48,135)" stroke="rgb(0,48,135)" stroke-width="1" opacity="0.996078431372549" d="M 145.5 54 Q 154.9 55.1 159 61.5 Q 161.7 64.8 161 71.5 L 155 81 Q 152.3 79.9 153 82.5 L 140 99.5 L 133 113.5 L 127 129.5 L 124 144.5 L 125 146.5 Q 122.5 148 124 153.5 L 125 156.5 L 127.5 160 L 130.5 161 L 134.5 159 L 147.5 152 L 164 139 L 166.5 135 L 180 122.5 L 196.5 104 L 199 105.5 L 199 109.5 L 195 118.5 L 179 141 Q 176.3 139.9 177 142.5 L 156.5 164 L 144.5 173 L 134.5 178 Q 129.9 177.4 128.5 180 L 115.5 180 Q 106.8 176.8 102 169.5 L 97 153.5 L 97 140.5 Q 99.2 139.2 98 134.5 L 96 135.5 Q 84.4 153.9 67.5 167 L 50.5 178 Q 45.9 177.4 44.5 180 L 32.5 180 Q 18.7 176.8 11 167.5 Q 2.9 160.6 4 144.5 L 7 133.5 L 12 123.5 Q 23.6 105.6 39.5 92 L 71.5 68 L 84.5 61 L 106.5 55 L 119.5 55 L 122.5 56 Q 130.7 56.7 134.5 62 Q 138 56 145.5 54 Z M 117 73 Q 115 76 109 74 Q 106 77 100 77 L 90 82 L 61 104 Q 40 123 29 152 L 29 163 L 32 166 L 38 165 L 52 155 Q 80 128 105 98 Q 104 95 107 96 Q 110 89 116 85 Q 115 82 118 83 L 124 74 L 123 74 Q 121 72 117 73 Z " /><path fill="rgb(0,48,135)" stroke="rgb(0,48,135)" stroke-width="1" opacity="0.996078431372549" d="M 287 69 L 291 70.5 Q 292.2 75.1 287 73 L 287 69 Z " /><path fill="rgb(0,48,135)" stroke="rgb(0,48,135)" stroke-width="1" opacity="0.996078431372549" d="M 419.5 69 Q 423 70.3 422 75 L 425.5 74 L 431 77.5 L 431 87.5 L 429.5 89 L 427 87.5 L 427 79.5 L 425.5 78 Q 421.1 76.5 422 79.5 L 422 81.5 Q 423.5 88.5 419.5 90 L 417 87.5 L 417 71.5 L 419.5 69 Z " /><path fill="rgb(0,48,135)" stroke="rgb(0,48,135)" stroke-width="1" opacity="0.996078431372549" d="M 470.5 69 L 473 70.5 L 473 87.5 L 471.5 89 L 469 87.5 L 469 70.5 L 470.5 69 Z " /><path fill="rgb(0,48,135)" stroke="rgb(0,48,135)" stroke-width="1" opacity="0.996078431372549" d="M 257.5 70 Q 265.1 68.9 268 72.5 L 264.5 75 L 260.5 73 L 258 74.5 Q 256.9 77.8 259.5 77 L 265.5 79 L 268 81.5 L 269 83.5 L 265.5 89 L 259.5 90 L 253 86.5 L 254 84 Q 257.4 83.3 258.5 86 L 264 86 Q 266.2 80.4 260.5 82 L 254 78.5 Q 252.8 71.3 257.5 70 Z " /><path fill="rgb(0,48,135)" stroke="rgb(0,48,135)" stroke-width="1" opacity="0.996078431372549" d="M 371 70 L 384.5 70 L 386 71.5 L 384.5 74 L 381 74.5 L 381 87.5 L 377.5 89 L 376 87.5 L 376 74 Q 372.2 75 371 72.5 L 371 70 Z " /><path fill="rgb(0,48,135)" stroke="rgb(0,48,135)" stroke-width="1" opacity="0.996078431372549" d="M 276.5 74 L 284 76 L 282.5 79 L 276.5 78 L 274 83.5 Q 275 87 280.5 86 L 282.5 85 L 284 87.5 Q 282 90.5 276.5 90 L 271 85.5 L 270 81.5 L 274.5 75 L 276.5 74 Z " /><path fill="rgb(0,48,135)" stroke="rgb(0,48,135)" stroke-width="1" opacity="0.996078431372549" d="M 300.5 74 Q 306.1 74.5 308 78.5 Q 308.8 83.3 305.5 84 L 298.5 84 L 298 86 L 300.5 87 L 305.5 85 L 307 87.5 Q 305 90.5 299.5 90 L 294 85.5 Q 292.3 76.8 297.5 75 L 300.5 74 Z M 300 78 L 298 81 L 304 81 L 304 80 Q 303 77 300 78 Z " /><path fill="rgb(0,48,135)" stroke="rgb(0,48,135)" stroke-width="1" opacity="0.996078431372549" d="M 318.5 74 Q 323.5 73.5 324 77.5 L 324 88.5 L 321.5 89 L 320 87.5 L 320 78 Q 316.2 77 315 79.5 L 315 87.5 L 313.5 89 L 311 88.5 L 311 76.5 L 313.5 75 L 315.5 75 L 318.5 74 Z " /><path fill="rgb(0,48,135)" stroke="rgb(0,48,135)" stroke-width="1" opacity="0.996078431372549" d="M 334.5 74 L 340 76.5 Q 341.3 80.7 336.5 79 L 333.5 78 Q 330 79 331 84.5 Q 332 87 336.5 86 L 340 85 L 338.5 89 L 333.5 90 L 327 85.5 Q 325.7 77.2 330.5 75 L 334.5 74 Z " /><path fill="rgb(0,48,135)" stroke="rgb(0,48,135)" stroke-width="1" opacity="0.996078431372549" d="M 347.5 74 Q 353.9 74.1 356 78.5 Q 357.9 83.9 354.5 83 L 346 84.5 Q 347 87 351.5 86 L 353.5 85 L 355 87.5 Q 353.3 90.8 347.5 90 L 342 85.5 Q 340.3 76.8 345.5 75 L 347.5 74 Z M 348 78 L 346 81 L 352 81 L 352 80 Q 351 77 348 78 Z " /><path fill="rgb(0,48,135)" stroke="rgb(0,48,135)" stroke-width="1" opacity="0.996078431372549" d="M 390.5 74 Q 396.9 74.1 399 78.5 L 400 81.5 Q 397 85.5 389 84.5 L 391.5 87 L 394.5 86 L 398 85 L 396.5 89 L 391.5 90 L 386 86.5 L 385 80.5 L 387.5 76 L 390.5 74 Z M 390 78 L 390 80 L 390 81 Q 396 82 395 80 Q 394 77 390 78 Z " /><path fill="rgb(0,48,135)" stroke="rgb(0,48,135)" stroke-width="1" opacity="0.996078431372549" d="M 408.5 74 L 415 76.5 L 413.5 79 L 407.5 78 L 405 83.5 Q 406 87 411.5 86 L 413.5 85 Q 416.3 86.3 414 87.5 Q 414.8 89.8 412.5 89 L 407.5 90 L 403 87.5 L 401 81.5 L 405.5 75 L 408.5 74 Z " /><path fill="rgb(0,48,135)" stroke="rgb(0,48,135)" stroke-width="1" opacity="0.996078431372549" d="M 442.5 74 L 447 76.5 L 448 87.5 L 444 89 Q 445.1 81.4 443 78 Q 439.2 77.3 438 80.5 L 438 88.5 L 435.5 89 L 434 87.5 L 434 77.5 L 435 75 L 438.5 76 L 442.5 74 Z " /><path fill="rgb(0,48,135)" stroke="rgb(0,48,135)" stroke-width="1" opacity="0.996078431372549" d="M 456.5 74 Q 463.1 73.4 465 77.5 L 466 85.5 Q 464.4 90.9 456.5 90 L 452 87.5 L 450 80.5 L 454.5 75 L 456.5 74 Z M 457 78 Q 453 79 454 84 Q 455 87 461 86 Q 463 85 462 80 Q 461 77 457 78 Z " /><path fill="rgb(0,48,135)" stroke="rgb(0,48,135)" stroke-width="1" opacity="0.996078431372549" d="M 482.5 74 Q 488.9 74.1 491 78.5 L 492 83.5 L 490 88 L 482.5 90 L 476 85.5 Q 474.8 78.3 478.5 76 L 482.5 74 Z M 482 78 Q 479 79 480 85 Q 482 88 487 86 L 488 84 L 487 80 Q 486 77 482 78 Z " /><path fill="rgb(0,48,135)" stroke="rgb(0,48,135)" stroke-width="1" opacity="0.996078431372549" d="M 500.5 74 L 505.5 76 L 507.5 75 L 509 76.5 L 509 89.5 Q 507.1 95.1 498.5 94 L 495 91.5 L 495.5 90 L 503.5 90 L 505 87.5 L 503.5 88 L 500.5 89 L 494 84.5 L 493 81.5 L 496.5 75 L 500.5 74 Z M 500 78 L 497 82 L 498 84 L 504 85 L 505 80 Q 504 77 500 78 Z " /><path fill="rgb(0,48,135)" stroke="rgb(0,48,135)" stroke-width="1" opacity="0.996078431372549" d="M 288.5 75 L 291 76.5 L 291 87.5 L 289.5 89 L 287 88.5 L 287 76.5 L 288.5 75 Z " /><path fill="rgb(0,48,135)" stroke="rgb(0,48,135)" stroke-width="1" opacity="0.996078431372549" d="M 512.5 75 L 516 76.5 L 518 83 Q 521 84.3 520 80.5 L 523.5 75 L 526 76.5 L 520 91.5 L 517.5 94 Q 513 95 512 92.5 L 513.5 90 L 515.5 91 L 517 88.5 L 511 76.5 L 512.5 75 Z " /><path fill="rgb(0,48,135)" stroke="rgb(0,48,135)" stroke-width="1" opacity="0.996078431372549" d="M 359.5 85 L 363 86.5 Q 363.6 91.6 360.5 93 L 357 92.5 L 360 89.5 L 359 88.5 L 358 86.5 L 359.5 85 Z " /><path fill="rgb(0,48,135)" stroke="rgb(0,48,135)" stroke-width="1" opacity="0.996078431372549" d="M 298 104 L 301 105.5 L 301 122.5 L 299.5 124 L 296.5 123 Q 295 125.5 289.5 124 Q 285.2 121.8 286 114.5 L 288.5 110 L 294.5 109 L 297 110 L 298 104 Z M 293 112 Q 289 113 290 119 Q 291 121 295 121 L 298 117 L 297 113 L 293 112 Z " /><path fill="rgb(0,48,135)" stroke="rgb(0,48,135)" stroke-width="1" opacity="0.996078431372549" d="M 315.5 104 Q 324.4 102.6 328 106.5 L 330 110.5 L 326.5 116 L 325 116.5 L 329 122.5 L 326.5 124 L 322 118 L 317 118 L 317 122.5 L 314 124 L 313 121.5 L 313 107.5 L 315.5 104 Z M 317 108 L 317 114 L 324 114 Q 326 113 325 110 Q 323 106 317 108 Z " /><path fill="rgb(0,48,135)" stroke="rgb(0,48,135)" stroke-width="1" opacity="0.996078431372549" d="M 421 104 L 424 105.5 Q 422.1 110.9 425.5 110 L 430.5 109 Q 436.3 111.3 434 121.5 L 433 124 L 430 122.5 L 430 113.5 L 427.5 113 Q 425.8 110.3 424 114.5 L 424 122.5 L 422.5 124 Q 420.3 124.8 421 122.5 L 420 121.5 L 420 106.5 L 421 104 Z " /><path fill="rgb(0,48,135)" stroke="rgb(0,48,135)" stroke-width="1" opacity="0.996078431372549" d="M 257.5 109 Q 264.5 107.5 266 111.5 Q 268.3 114.7 267 121.5 L 266 124 L 262.5 123 Q 261 125.5 255.5 124 Q 252 123 253 117.5 Q 254.8 114.3 259.5 114 L 262.5 115 L 260.5 112 L 258.5 113 L 256.5 113 L 254 111.5 L 257.5 109 Z M 257 118 L 257 121 L 262 121 L 263 119 L 257 118 Z " /><path fill="rgb(0,48,135)" stroke="rgb(0,48,135)" stroke-width="1" opacity="0.996078431372549" d="M 271.5 109 L 274.5 110 Q 275.7 107.8 280.5 109 L 283 111.5 L 283 122.5 Q 281 126 279 121.5 L 279 113 L 274 113 Q 275.1 120.6 273 124 L 270 122.5 L 270 110.5 L 271.5 109 Z " /><path fill="rgb(0,48,135)" stroke="rgb(0,48,135)" stroke-width="1" opacity="0.996078431372549" d="M 335.5 109 Q 343.1 107.9 345 112.5 L 346 115.5 L 345 118 L 335 118.5 Q 336 122 341.5 121 L 343.5 120 Q 346.5 121.5 343.5 123 L 335.5 124 L 331 118.5 L 331 116.5 Q 331.5 111 335.5 109 Z M 338 112 L 336 115 L 342 115 Q 342 111 338 112 Z " /><path fill="rgb(0,48,135)" stroke="rgb(0,48,135)" stroke-width="1" opacity="0.996078431372549" d="M 350.5 109 L 359 110 L 357.5 113 L 352 112 Q 350.9 114.7 353.5 114 L 359 117.5 Q 360 123 356.5 124 Q 349.3 125.3 347 121.5 Q 347.8 119.3 351.5 120 L 356 121 Q 357.1 118.3 354.5 119 L 348 114.5 L 350.5 109 Z " /><path fill="rgb(0,48,135)" stroke="rgb(0,48,135)" stroke-width="1" opacity="0.996078431372549" d="M 365.5 109 Q 373.5 107.5 375 112.5 L 376 115.5 L 375 118 L 365 118.5 Q 365.8 121.8 370.5 121 L 374 120 L 372.5 124 Q 364.2 125.3 362 120.5 L 361 115.5 L 365.5 109 Z M 368 112 L 366 115 L 372 115 Q 372 111 368 112 Z " /><path fill="rgb(0,48,135)" stroke="rgb(0,48,135)" stroke-width="1" opacity="0.996078431372549" d="M 380.5 109 Q 389.3 107.3 391 112.5 L 391 122.5 L 389.5 124 L 386.5 123 Q 385 125.5 379.5 124 L 377 118.5 L 378 116 L 384.5 114 L 387 115 L 385.5 112 L 383.5 113 L 381.5 113 L 379 111.5 L 380.5 109 Z M 387 117 L 386 118 Q 379 116 381 121 Q 386 122 387 120 L 387 117 Z " /><path fill="rgb(0,48,135)" stroke="rgb(0,48,135)" stroke-width="1" opacity="0.996078431372549" d="M 395 109 L 398.5 111 Q 399.6 108.3 403 109 L 401.5 113 L 399 114.5 L 398 122.5 L 396.5 124 Q 394.3 124.8 395 122.5 L 394 121.5 L 394 111.5 L 395 109 Z " /><path fill="rgb(0,48,135)" stroke="rgb(0,48,135)" stroke-width="1" opacity="0.996078431372549" d="M 408.5 109 Q 416.3 107.3 418 111.5 Q 416.3 115.8 414.5 113 L 411.5 112 L 409 113 L 408 117.5 L 410.5 121 Q 414.8 121.8 415.5 119 L 417 122.5 L 411.5 125 L 405 120.5 L 404 115.5 L 408.5 109 Z " /><path fill="rgb(0,48,135)" stroke="rgb(0,48,135)" stroke-width="1" opacity="0.996078431372549" d="M 253.5 143 L 401 143.5 L 253.5 144 L 253.5 143 Z " /><path fill="rgb(0,48,135)" stroke="rgb(0,48,135)" stroke-width="1" opacity="0.996078431372549" d="M 256.5 163 Q 262.5 161.5 264 164.5 Q 264.8 167.1 261.5 166 L 256 165 Q 255.3 168.8 258.5 170 L 264 171 L 265 175.5 Q 263.7 179.7 257.5 179 L 254 178 L 253 175.5 L 254.5 175 L 257.5 177 L 259.5 176 Q 260.8 178.3 262 175.5 L 260.5 172 Q 255.4 172.6 254 169.5 L 253 166.5 L 256.5 163 Z " /><path fill="rgb(0,48,135)" stroke="rgb(0,48,135)" stroke-width="1" opacity="0.996078431372549" d="M 270 163 L 272 163.5 L 272 178 L 270 177.5 L 270 163 Z " /><path fill="rgb(0,48,135)" stroke="rgb(0,48,135)" stroke-width="1" opacity="0.996078431372549" d="M 278 163 Q 281.8 161.5 281 164.5 L 288.5 174 L 289 163 L 291 163.5 L 291 178 L 285 173.5 L 280.5 167 L 280 178 L 278 177.5 L 278 163 Z " /><path fill="rgb(0,48,135)" stroke="rgb(0,48,135)" stroke-width="1" opacity="0.996078431372549" d="M 301.5 163 Q 308.5 161.5 310 165.5 L 307.5 166 L 302.5 165 L 300 166 Q 298.4 168.1 299 173.5 L 304.5 177 L 308 176 L 308 172 Q 302.8 173.7 304 170 Q 309.4 168.5 311 171.5 Q 312 177 308.5 178 L 302.5 179 L 298 177 L 296 170.5 L 297 166.5 L 299.5 164 L 301.5 163 Z " /><path fill="rgb(0,48,135)" stroke="rgb(0,48,135)" stroke-width="1" opacity="0.996078431372549" d="M 321 163 Q 324.7 161.5 324 164.5 L 330 177.5 L 328 178.5 L 327 175 L 318.5 175 L 318 176.5 L 316.5 179 L 315 176.5 L 321 163 Z M 323 166 L 321 171 L 321 172 L 325 172 L 323 166 Z " /><path fill="rgb(0,48,135)" stroke="rgb(0,48,135)" stroke-width="1" opacity="0.996078431372549" d="M 335 163 L 343.5 163 L 346 165.5 L 347 169.5 Q 345 174.8 337 173 L 337 178 L 335 178 L 335 163 Z M 337 165 L 337 171 L 343 171 Q 345 170 344 166 L 337 165 Z " /><path fill="rgb(0,48,135)" stroke="rgb(0,48,135)" stroke-width="1" opacity="0.996078431372549" d="M 355.5 163 Q 362.8 161.8 365 165.5 L 367 171.5 L 362.5 178 L 357.5 179 L 351 174.5 L 350 169.5 L 353.5 164 L 355.5 163 Z M 357 165 L 353 169 L 354 175 Q 356 177 362 176 L 364 173 L 363 168 Q 362 164 357 165 Z " /><path fill="rgb(0,48,135)" stroke="rgb(0,48,135)" stroke-width="1" opacity="0.996078431372549" d="M 372.5 163 Q 381.2 161.3 384 165.5 Q 384.6 171.6 381 173.5 L 382 176 Q 384.7 174.9 384 177.5 Q 382 181 380 176.5 L 377.5 173 Q 371.8 171.2 374 177.5 L 372 178.5 L 371 176.5 L 371 164.5 L 372.5 163 Z M 374 165 L 374 170 L 381 170 L 382 169 L 381 167 Q 379 163 374 165 Z " /><path fill="rgb(0,48,135)" stroke="rgb(0,48,135)" stroke-width="1" opacity="0.996078431372549" d="M 390.5 163 L 399.5 163 L 400 165 L 392 165 L 392 169 Q 397.4 167.5 399 170.5 L 398.5 172 L 392 172 L 392 176 Q 398.2 174.7 401 177.5 Q 398 180.5 390.5 179 L 389 177.5 L 389 164.5 L 390.5 163 Z " /></svg>