<?xml version="1.0" standalone="no"?>
<!DOCTYPE svg PUBLIC "-//W3C//DTD SVG 20010904//EN"
 "http://www.w3.org/TR/2001/REC-SVG-20010904/DTD/svg10.dtd">
<svg version="1.0" xmlns="http://www.w3.org/2000/svg"
 width="204.000000pt" height="192.000000pt" viewBox="0 0 204.000000 192.000000"
 preserveAspectRatio="xMidYMid meet">

<g transform="translate(0.000000,192.000000) scale(0.100000,-0.100000)"
fill="#000000" stroke="none">
<path d="M930 1844 c-14 -2 -52 -9 -85 -15 -33 -6 -99 -27 -147 -46 -248 -99
-436 -306 -520 -573 -20 -66 -23 -95 -23 -240 0 -195 11 -244 85 -395 132
-270 393 -450 701 -485 259 -29 543 77 722 269 76 82 111 135 162 244 54 115
78 229 77 367 -1 234 -79 432 -236 597 -168 177 -367 269 -601 278 -60 2 -121
2 -135 -1z m245 -29 c308 -54 572 -281 666 -575 79 -245 56 -480 -68 -699
-114 -201 -313 -353 -541 -412 -97 -26 -284 -28 -389 -6 -167 36 -339 138
-460 272 -237 262 -284 658 -117 975 124 236 370 411 629 449 94 14 185 12
280 -4z"/>
<path d="M865 1724 c-248 -60 -429 -203 -535 -426 -58 -121 -74 -193 -74 -328
0 -167 37 -291 131 -432 48 -73 151 -180 196 -204 33 -17 33 -16 5 37 -29 57
-35 128 -13 184 9 25 19 45 21 45 7 0 78 -81 91 -104 20 -34 15 -70 -12 -96
-28 -27 -31 -46 -11 -69 57 -64 77 -81 95 -81 11 0 23 -4 26 -10 3 -5 24 -10
45 -10 l39 0 -15 28 c-28 55 -9 128 32 120 10 -2 26 -18 35 -37 8 -18 23 -38
32 -43 36 -20 2 -68 -48 -68 -16 0 -26 -3 -22 -6 3 -4 27 -3 52 0 39 6 45 10
45 31 0 17 9 29 29 40 l30 15 -3 92 c-2 51 -11 122 -20 157 -10 35 -15 66 -12
69 3 2 36 -24 73 -59 39 -37 95 -77 131 -94 34 -17 62 -37 63 -45 0 -10 2 -11
6 -2 3 7 22 12 46 12 59 0 111 17 146 45 34 29 44 60 32 100 -8 27 -9 24 -10
-22 -1 -63 -25 -86 -104 -103 -97 -20 -212 28 -329 138 -26 24 -48 50 -48 57
0 7 -9 10 -24 8 -20 -4 -30 4 -62 52 -20 32 -41 74 -45 94 -8 32 -8 31 -4 -10
3 -37 0 -50 -15 -64 -11 -10 -18 -20 -15 -23 3 -3 14 3 25 13 11 10 23 15 27
11 12 -11 -11 -38 -61 -73 -27 -18 -41 -33 -33 -33 9 0 37 16 63 36 43 33 49
35 60 20 6 -9 10 -25 8 -34 -3 -9 2 -52 10 -95 8 -43 13 -84 10 -92 -5 -11
-24 -15 -73 -16 -106 -2 -131 -17 -29 -18 104 -1 124 11 114 68 -3 20 -9 62
-13 95 -6 55 -5 58 12 48 20 -11 55 -130 55 -189 0 -64 2 -63 -162 -63 l-150
0 7 38 c7 46 -2 74 -48 134 -35 45 -35 47 -14 51 18 4 17 5 -5 6 -33 1 -34 6
-9 47 17 28 51 44 92 44 15 0 10 -26 -12 -56 -19 -26 -18 -25 10 4 32 34 39
52 19 52 -6 0 -2 10 9 23 33 36 47 68 33 77 -7 5 -3 12 14 24 31 20 63 76 44
76 -7 0 -4 8 8 18 30 24 57 69 49 82 -4 6 -20 8 -41 4 -19 -3 -34 -2 -34 3 0
21 69 74 103 80 44 7 49 -8 15 -44 -16 -18 -18 -22 -6 -18 24 9 49 51 42 69
-4 11 -14 13 -35 9 -16 -3 -29 -1 -29 4 0 18 48 62 73 68 62 16 86 -14 35 -45
-18 -11 -27 -20 -20 -20 8 0 28 14 45 32 23 23 28 33 18 36 -9 3 -4 9 15 17
27 12 26 12 -21 8 l-50 -4 37 35 c31 29 45 36 78 36 47 0 50 -10 14 -39 -15
-12 -22 -21 -17 -21 13 0 56 47 59 64 2 11 -6 13 -33 9 -34 -6 -35 -5 -23 16
12 23 81 60 113 61 20 0 21 -4 6 -33 -7 -12 6 -3 28 21 36 38 83 57 83 33 0
-5 -30 -38 -66 -73 -84 -80 -210 -231 -277 -330 -36 -54 -58 -77 -73 -78 -22
0 -64 -34 -64 -52 0 -6 9 1 21 16 36 46 90 26 108 -40 6 -22 14 -29 32 -30 14
0 36 -8 49 -17 14 -9 30 -17 37 -17 21 0 53 38 53 62 0 12 12 39 26 60 26 37
28 65 9 125 -6 18 -1 25 26 39 18 9 42 27 52 40 10 13 27 24 37 24 10 0 31 11
47 24 15 12 39 25 53 28 14 3 32 8 41 12 10 5 20 -3 32 -26 10 -18 15 -24 11
-13 -11 29 -10 98 0 112 5 9 -4 26 -28 53 -41 45 -40 44 -24 70 10 16 10 23
-4 36 -14 15 -21 15 -48 4 -36 -15 -49 -7 -32 20 19 30 15 33 -31 28 l-44 -5
7 39 c6 28 21 54 54 87 37 37 44 50 34 58 -23 19 -172 71 -232 82 -81 15 -228
12 -301 -5z m390 -38 c44 -15 91 -34 104 -43 l23 -15 -47 -48 -48 -49 -47 19
c-100 39 -236 46 -365 18 -203 -44 -397 -238 -449 -449 -42 -170 -4 -381 92
-509 23 -30 26 -44 27 -115 0 -44 5 -88 9 -99 17 -35 -37 10 -98 82 -127 149
-196 356 -182 539 16 194 84 341 222 480 79 79 106 98 195 142 136 68 201 82
359 77 104 -3 139 -8 205 -30z m-52 -146 c37 -11 67 -25 67 -29 0 -19 -33 -19
-106 -1 -195 50 -385 -2 -530 -144 -87 -86 -136 -180 -161 -306 -14 -68 -15
-96 -6 -159 14 -93 44 -175 88 -241 27 -41 31 -52 21 -66 -11 -15 -17 -10 -52
43 -98 146 -125 344 -71 509 105 318 435 492 750 394z m-31 -55 l47 -17 -16
-25 c-15 -23 -18 -24 -23 -7 -4 11 -9 14 -13 7 -4 -7 -3 -14 3 -18 20 -13 9
-47 -29 -88 -45 -48 -59 -44 -43 11 9 31 9 34 -2 20 -9 -12 -16 -14 -23 -7 -8
8 -13 7 -18 -2 -5 -7 -4 -10 2 -6 15 9 24 -30 13 -57 -4 -11 -22 -34 -39 -50
l-31 -30 0 32 c0 43 -25 52 -53 21 -20 -21 -20 -22 -1 -6 30 24 34 22 34 -21
0 -30 -7 -45 -35 -72 l-35 -34 0 26 c0 15 4 38 10 53 7 17 7 24 0 20 -6 -3
-10 -13 -10 -22 0 -9 -6 -13 -15 -10 -27 11 -90 -91 -84 -135 4 -34 -3 -59
-25 -85 l-24 -28 -8 29 c-3 15 -2 43 4 62 5 19 6 32 1 28 -5 -3 -12 -23 -15
-45 -6 -33 -8 -37 -18 -23 -11 14 -13 14 -25 0 -12 -14 -12 -16 1 -11 38 15
49 -95 12 -126 -13 -10 -19 -8 -38 14 -13 15 -28 27 -33 27 -11 0 -36 -50 -29
-57 2 -2 7 5 11 16 7 24 18 27 34 8 22 -28 23 -71 0 -106 -20 -33 -22 -34 -32
-15 -6 10 -14 35 -18 54 -6 30 -7 31 -8 8 -1 -19 -5 -26 -15 -22 -9 4 -18 -7
-27 -33 l-12 -38 -24 54 c-105 238 1 534 235 659 131 70 296 89 414 47z m128
20 c0 -26 -35 -78 -67 -99 -44 -31 -53 -20 -23 29 27 43 90 92 90 70z m70 -53
c0 -23 -87 -72 -126 -72 -15 0 -14 4 7 26 36 39 119 71 119 46z m85 -51 c3 -5
1 -12 -5 -16 -19 -12 -10 -41 21 -73 17 -18 29 -37 26 -44 -2 -7 -45 -25 -94
-40 -149 -45 -238 -119 -342 -285 -43 -69 -54 -77 -74 -55 -14 16 -11 23 36
93 78 114 146 195 244 290 136 132 171 156 188 130z m35 -181 c0 -17 -61 -43
-73 -31 -13 13 -1 27 28 34 34 8 45 7 45 -3z m-100 -24 c0 -20 -31 -53 -57
-61 -20 -5 -23 -3 -23 20 0 20 8 29 33 40 41 18 47 18 47 1z m-498 -23 c3 -41
-5 -68 -28 -96 -20 -24 -25 -26 -30 -12 -13 33 21 125 46 125 6 0 11 -8 12
-17z m398 -28 c0 -29 -23 -64 -51 -75 -15 -7 -30 -18 -33 -26 -5 -14 -37 -19
-49 -8 -11 12 13 44 64 84 55 43 69 48 69 25z m-130 -163 c0 -19 -10 -38 -31
-56 -17 -15 -28 -30 -25 -34 4 -3 22 10 42 29 24 23 34 41 32 58 -4 34 18 37
29 4 11 -31 2 -66 -23 -94 -8 -9 -17 -31 -19 -49 -13 -98 -82 -69 -85 35 -2
71 -3 70 26 104 33 39 54 40 54 3z m-270 4 c0 -16 -55 -66 -73 -66 -7 0 -22
-3 -34 -6 -32 -9 -30 16 5 48 41 38 102 53 102 24z m-62 -112 c-14 -31 -56
-54 -98 -54 -34 0 -37 6 -12 36 24 30 52 43 89 44 31 0 32 -1 21 -26z m242 -3
c0 -31 -22 -57 -40 -46 -14 9 -13 22 6 50 22 33 34 32 34 -4z m-289 -88 c-18
-34 -58 -64 -95 -70 -30 -5 -36 -3 -36 11 0 10 13 31 29 47 23 23 38 29 71 29
36 0 40 -2 31 -17z m-165 -34 c18 -35 13 -89 -10 -108 -19 -16 -46 22 -46 64
0 77 27 98 56 44z m78 -392 c-7 -19 -20 -22 -29 -7 -9 15 16 43 27 32 5 -5 6
-16 2 -25z m126 -24 c0 -27 3 -58 6 -70 5 -19 2 -23 -14 -23 -12 0 -26 9 -32
19 -14 28 -13 108 3 114 31 13 37 6 37 -40z m-66 -15 c2 -51 -10 -61 -38 -32
-19 18 -21 70 -3 77 29 13 39 1 41 -45z m269 40 c7 -22 -4 -47 -25 -54 -23 -7
-58 21 -58 48 0 14 8 18 39 18 23 0 41 -5 44 -12z"/>
<path d="M1042 1689 c-1 -9 -5 -32 -8 -50 -4 -28 -3 -31 6 -16 6 9 9 32 7 50
-2 17 -5 25 -5 16z"/>
<path d="M912 1670 c0 -14 3 -34 8 -45 l9 -20 -1 20 c0 11 -4 31 -8 45 l-8 25
0 -25z"/>
<path d="M1164 1644 c-8 -20 -13 -38 -11 -40 2 -2 11 14 20 36 19 50 12 53 -9
4z"/>
<path d="M780 1659 c0 -14 31 -81 36 -76 3 3 -4 22 -15 44 -11 21 -20 35 -21
32z"/>
<path d="M1266 1614 c-15 -20 -26 -38 -23 -40 3 -3 17 11 32 31 36 46 28 55
-9 9z"/>
<path d="M676 1565 c14 -19 31 -35 37 -35 6 0 -4 16 -23 35 -19 19 -36 35 -37
35 -2 0 8 -16 23 -35z"/>
<path d="M540 1516 c0 -9 70 -59 75 -54 3 3 -13 17 -35 32 -22 14 -40 24 -40
22z"/>
<path d="M451 1407 c11 -13 79 -37 79 -28 0 5 -11 12 -24 15 -13 3 -32 9 -43
13 -10 3 -16 3 -12 0z"/>
<path d="M395 1280 c17 -4 39 -8 50 -9 16 -1 17 1 5 9 -8 5 -31 9 -50 9 l-35
-1 30 -8z"/>
<path d="M350 1160 c-34 -7 -34 -7 -5 -8 17 0 39 3 50 8 24 10 4 10 -45 0z"/>
<path d="M343 1037 c-39 -15 -58 -32 -23 -22 30 9 79 34 65 34 -5 0 -24 -6
-42 -12z"/>
<path d="M337 903 c-20 -14 -36 -28 -33 -30 6 -6 76 38 76 48 0 12 1 12 -43
-18z"/>
<path d="M365 770 c-16 -16 -26 -32 -23 -35 3 -3 17 10 32 30 33 43 29 45 -9
5z"/>
<path d="M416 644 c-23 -50 -16 -52 12 -3 12 21 19 39 14 39 -4 0 -16 -16 -26
-36z"/>
<path d="M491 553 c-6 -21 -11 -45 -10 -53 0 -8 7 7 14 35 8 27 12 51 10 53
-2 2 -8 -13 -14 -35z"/>
<path d="M1124 1408 l-19 -23 23 19 c21 18 27 26 19 26 -2 0 -12 -10 -23 -22z"/>
<path d="M1020 1330 c-6 -11 -8 -20 -6 -20 3 0 10 9 16 20 6 11 8 20 6 20 -3
0 -10 -9 -16 -20z"/>
<path d="M781 1106 c-10 -12 -8 -13 8 -9 12 3 21 9 21 14 0 14 -16 11 -29 -5z"/>
<path d="M672 935 c0 -16 2 -22 5 -12 2 9 2 23 0 30 -3 6 -5 -1 -5 -18z"/>
<path d="M1210 1310 c-9 -6 -10 -10 -3 -10 6 0 15 5 18 10 8 12 4 12 -15 0z"/>
<path d="M1394 1074 c-18 -14 -18 -15 5 -4 12 7 32 10 42 7 10 -3 17 -1 13 4
-8 14 -38 11 -60 -7z"/>
<path d="M1535 1030 c12 -40 68 -161 72 -157 4 4 -65 167 -74 177 -3 3 -2 -6
2 -20z"/>
<path d="M1412 1025 c-18 -8 -45 -24 -59 -34 l-25 -20 25 -6 c13 -4 39 -5 58
-2 27 3 23 4 -16 6 l-50 1 25 20 c14 11 35 20 46 20 12 0 24 7 28 15 3 8 4 15
3 15 -1 -1 -17 -7 -35 -15z"/>
<path d="M920 855 c-6 -8 -10 -19 -8 -24 1 -6 8 1 15 14 13 28 11 31 -7 10z"/>
<path d="M960 865 c0 -5 5 -17 10 -25 5 -8 10 -10 10 -5 0 6 -5 17 -10 25 -5
8 -10 11 -10 5z"/>
<path d="M1471 844 c0 -11 3 -14 6 -6 3 7 2 16 -1 19 -3 4 -6 -2 -5 -13z"/>
<path d="M910 781 c0 -10 39 -46 43 -40 2 2 -7 14 -20 26 -13 12 -23 19 -23
14z"/>
<path d="M1264 335 c2 -38 6 -77 10 -86 6 -14 -9 -15 -131 -13 l-138 2 133 -8
c73 -4 139 -10 146 -13 23 -9 26 4 9 37 -9 17 -20 58 -24 91 l-8 60 3 -70z"/>
</g>
</svg>
